<?xml version="1.0" encoding="UTF-8" standalone="no"?>
<svg
   xmlns:dc="http://purl.org/dc/elements/1.1/"
   xmlns:cc="http://creativecommons.org/ns#"
   xmlns:rdf="http://www.w3.org/1999/02/22-rdf-syntax-ns#"
   xmlns:svg="http://www.w3.org/2000/svg"
   xmlns="http://www.w3.org/2000/svg"
   xmlns:sodipodi="http://sodipodi.sourceforge.net/DTD/sodipodi-0.dtd"
   xmlns:inkscape="http://www.inkscape.org/namespaces/inkscape"
   width="500"
   height="500"
   viewBox="0 0 132.29166 132.29167"
   version="1.1"
   id="svg8"
   inkscape:version="1.0.2 (e86c870, 2021-01-15)"
   sodipodi:docname="logo.svg">
  <defs
     id="defs2" />
  <sodipodi:namedview
     id="base"
     pagecolor="#ffffff"
     bordercolor="#666666"
     borderopacity="1.0"
     inkscape:pageopacity="0.0"
     inkscape:pageshadow="2"
     inkscape:zoom="0.7"
     inkscape:cx="38.922009"
     inkscape:cy="325.59191"
     inkscape:document-units="mm"
     inkscape:current-layer="layer1"
     inkscape:document-rotation="0"
     showgrid="false"
     units="px"
     inkscape:window-width="1366"
     inkscape:window-height="704"
     inkscape:window-x="0"
     inkscape:window-y="27"
     inkscape:window-maximized="1" />
  <metadata
     id="metadata5">
    <rdf:RDF>
      <cc:Work
         rdf:about="">
        <dc:format>image/svg+xml</dc:format>
        <dc:type
           rdf:resource="http://purl.org/dc/dcmitype/StillImage" />
        <dc:title></dc:title>
      </cc:Work>
    </rdf:RDF>
  </metadata>
  <g
     inkscape:label="Layer 1"
     inkscape:groupmode="layer"
     id="layer1">
    <g
       id="g145"
       transform="translate(-0.42934357)"
       style="fill:#cccccc">
      <circle
         id="path115"
         style="fill:#cccccc;stroke:#000000;stroke-width:0.618483"
         cx="61.259487"
         cy="83.357025"
         r="0.082568228" />
      <path
         style="fill:#cccccc;fill-opacity:1;fill-rule:nonzero;stroke:none;stroke-width:0.618483"
         id="path117"
         d="m 41.18997,30.913151 c 2.614306,10.022666 6.223094,19.735139 9.649299,29.498213 6.171327,17.171864 12.480198,34.294775 19.007003,51.334886 1.625084,4.44046 3.314286,8.85635 5.029217,13.26261 0.09653,0.24803 1.586398,4.31459 2.056561,4.79071 0.527555,0.53424 1.341734,0.67428 2.012595,1.01142 0.982652,-0.0621 1.987792,0.0317 2.947952,-0.18642 2.735255,-0.62121 6.084774,-2.42078 8.39107,-3.77824 4.082286,-2.40279 8.154585,-4.82846 12.121123,-7.41789 3.34594,-2.18428 7.25288,-5.59523 10.30707,-8.14231 6.3728,-5.42643 12.28809,-11.329728 17.69043,-17.715389 0,0 -8.00623,3.401522 -8.00623,3.401522 v 0 c -5.16613,6.294977 -10.90961,12.065097 -17.13814,17.319977 -1.69715,1.39647 -3.35477,2.84243 -5.09147,4.1894 -1.744774,1.35324 -3.72919,2.40693 -5.348627,3.90791 -0.515951,0.47821 2.549481,-1.16199 1.964464,-0.77129 -1.877394,1.2538 -5.50407,3.04496 -7.822238,3.74638 -0.832181,0.25179 -1.712765,0.30025 -2.569149,0.45036 -0.570736,-0.14962 -1.25925,-0.0708 -1.712207,-0.44888 -0.517055,-0.43159 -2.205117,-4.3547 -2.298937,-4.56299 -1.930798,-4.28666 -3.747625,-8.6215 -5.517035,-12.97724 C 69.772376,91.059834 62.965368,74.156831 57.336088,56.834744 54.22731,46.878362 50.843741,36.933912 49.387393,26.564369 c 0,0 -8.197423,4.348784 -8.197423,4.348782 z" />
      <path
         id="path117-6"
         style="fill:#cccccc;fill-opacity:1;fill-rule:nonzero;stroke:none;stroke-width:0.618483"
         d="m 83.762136,26.564254 c -1.456337,10.369544 -4.839693,20.314273 -7.948482,30.270656 -2.593845,7.981645 -5.445747,15.8716 -8.4522,23.702893 l 4.02739,9.750774 c 3.694895,-9.939047 7.335089,-19.898108 10.921304,-29.876854 3.426206,-9.763074 7.035013,-19.476092 9.649305,-29.498758 0,2e-6 -8.197317,-4.348711 -8.197317,-4.348711 z M 2.7480638,93.570646 C 8.150386,99.956307 14.064862,105.85917 20.437652,111.2856 c 3.054208,2.54709 6.961704,5.95869 10.30765,8.14296 3.966532,2.58944 8.03854,5.01539 12.120828,7.41819 2.306293,1.35745 5.65655,3.15613 8.391803,3.77734 0.960159,0.21809 1.964811,0.1251 2.947459,0.18723 0.670868,-0.33714 1.484935,-0.47804 2.012488,-1.01228 0.470165,-0.47612 1.959436,-4.5416 2.055976,-4.78963 1.71493,-4.40626 3.404922,-8.82311 5.030006,-13.26357 0.659657,-1.72222 1.307673,-3.44867 1.962961,-5.17255 L 61.058237,96.382815 c -1.569743,3.823045 -3.162101,7.637515 -4.7715,11.443145 -1.769414,4.35575 -3.586023,8.69062 -5.516824,12.97728 -0.09382,0.2083 -1.781727,4.13093 -2.298779,4.56253 -0.452957,0.3781 -1.140966,0.29974 -1.711701,0.44937 -0.856383,-0.15012 -1.737185,-0.19878 -2.569361,-0.45058 -2.318168,-0.70142 -5.945455,-2.49213 -7.822848,-3.74593 -0.585017,-0.3907 2.481324,1.2489 1.965372,0.77068 -1.619437,-1.50097 -3.604137,-2.55456 -5.348915,-3.9078 -1.736696,-1.34698 -3.394461,-2.79279 -5.091616,-4.18925 -6.228511,-5.25489 -11.972644,-11.02498 -17.138749,-17.319957 z" />
    </g>
    <rect
       style="fill:#cccccc;fill-rule:evenodd;stroke-width:0.211923"
       id="rect147"
       width="15.670561"
       height="15.670561"
       x="71.324928"
       y="-69.493088"
       transform="matrix(0.46972562,0.88281246,-0.46972562,0.88281246,0,0)" />
  </g>
</svg>
